<svg width="120" height="40" viewBox="0 0 120 40" fill="none" xmlns="http://www.w3.org/2000/svg">
  <defs>
    <linearGradient id="gearxpro-gradient" x1="0%" y1="0%" x2="100%" y2="0%">
      <stop offset="0%" style="stop-color:#059669" />
      <stop offset="100%" style="stop-color:#10B981" />
    </linearGradient>
  </defs>
  <rect width="120" height="40" rx="8" fill="url(#gearxpro-gradient)" />
  <text x="60" y="14" font-family="Arial, sans-serif" font-size="10" font-weight="bold" text-anchor="middle" fill="white">GEARXPRO</text>
  <text x="60" y="26" font-family="Arial, sans-serif" font-size="6" text-anchor="middle" fill="white" opacity="0.9">SPORTS EQUIPMENT</text>
  <!-- Gear/cog icons -->
  <g transform="translate(12, 16)">
    <circle cx="4" cy="4" r="6" fill="none" stroke="white" stroke-width="1" opacity="0.3" />
    <circle cx="4" cy="4" r="2" fill="white" opacity="0.5" />
    <rect x="2" y="0" width="4" height="1" fill="white" opacity="0.3" />
    <rect x="2" y="7" width="4" height="1" fill="white" opacity="0.3" />
    <rect x="0" y="2" width="1" height="4" fill="white" opacity="0.3" />
    <rect x="7" y="2" width="1" height="4" fill="white" opacity="0.3" />
  </g>
  
  <g transform="translate(96, 16)">
    <circle cx="4" cy="4" r="6" fill="none" stroke="white" stroke-width="1" opacity="0.3" />
    <circle cx="4" cy="4" r="2" fill="white" opacity="0.5" />
    <rect x="2" y="0" width="4" height="1" fill="white" opacity="0.3" />
    <rect x="2" y="7" width="4" height="1" fill="white" opacity="0.3" />
    <rect x="0" y="2" width="1" height="4" fill="white" opacity="0.3" />
    <rect x="7" y="2" width="1" height="4" fill="white" opacity="0.3" />
  </g>
</svg>